<mxfile host="app.diagrams.net" agent="Mozilla/5.0 (Windows NT 10.0; Win64; x64) AppleWebKit/537.36 (KHTML, like Gecko) Chrome/135.0.0.0 Safari/537.36" version="26.2.12" pages="5">
  <diagram name="Page-1" id="NyOnG_kX5CCc0Y3JeKOn">
    <mxGraphModel dx="1120" dy="1358" grid="0" gridSize="10" guides="1" tooltips="1" connect="1" arrows="1" fold="1" page="0" pageScale="1" pageWidth="850" pageHeight="1100" math="0" shadow="0">
      <root>
        <mxCell id="0" />
        <mxCell id="1" parent="0" />
        <mxCell id="DXJZPBngIMLDcMMttX4D-1" value="" style="rounded=0;whiteSpace=wrap;html=1;" vertex="1" parent="1">
          <mxGeometry x="-6" y="-161" width="484" height="594" as="geometry" />
        </mxCell>
        <mxCell id="DXJZPBngIMLDcMMttX4D-2" value="" style="ellipse;whiteSpace=wrap;html=1;" vertex="1" parent="1">
          <mxGeometry x="291" y="-39" width="120" height="80" as="geometry" />
        </mxCell>
        <mxCell id="DXJZPBngIMLDcMMttX4D-33" style="edgeStyle=none;curved=1;rounded=0;orthogonalLoop=1;jettySize=auto;html=1;entryX=0;entryY=1;entryDx=0;entryDy=0;fontSize=12;startSize=8;endSize=8;" edge="1" parent="1" source="DXJZPBngIMLDcMMttX4D-3" target="DXJZPBngIMLDcMMttX4D-13">
          <mxGeometry relative="1" as="geometry" />
        </mxCell>
        <mxCell id="DXJZPBngIMLDcMMttX4D-38" style="edgeStyle=none;curved=1;rounded=0;orthogonalLoop=1;jettySize=auto;html=1;exitX=0.5;exitY=1;exitDx=0;exitDy=0;entryX=0.5;entryY=0;entryDx=0;entryDy=0;fontSize=12;startSize=8;endSize=8;" edge="1" parent="1" source="DXJZPBngIMLDcMMttX4D-3" target="DXJZPBngIMLDcMMttX4D-6">
          <mxGeometry relative="1" as="geometry" />
        </mxCell>
        <mxCell id="DXJZPBngIMLDcMMttX4D-3" value="" style="ellipse;whiteSpace=wrap;html=1;" vertex="1" parent="1">
          <mxGeometry x="80" y="-5" width="119" height="80" as="geometry" />
        </mxCell>
        <mxCell id="DXJZPBngIMLDcMMttX4D-42" style="edgeStyle=none;curved=1;rounded=0;orthogonalLoop=1;jettySize=auto;html=1;exitX=1;exitY=0.5;exitDx=0;exitDy=0;fontSize=12;startSize=8;endSize=8;" edge="1" parent="1" source="DXJZPBngIMLDcMMttX4D-4" target="DXJZPBngIMLDcMMttX4D-6">
          <mxGeometry relative="1" as="geometry" />
        </mxCell>
        <mxCell id="DXJZPBngIMLDcMMttX4D-4" value="" style="ellipse;whiteSpace=wrap;html=1;" vertex="1" parent="1">
          <mxGeometry x="94" y="285" width="120" height="80" as="geometry" />
        </mxCell>
        <mxCell id="DXJZPBngIMLDcMMttX4D-6" value="" style="ellipse;whiteSpace=wrap;html=1;" vertex="1" parent="1">
          <mxGeometry x="318" y="85" width="120" height="80" as="geometry" />
        </mxCell>
        <mxCell id="DXJZPBngIMLDcMMttX4D-7" value="Manage Purchase Order" style="text;strokeColor=none;fillColor=none;html=1;align=center;verticalAlign=middle;whiteSpace=wrap;rounded=0;fontSize=16;" vertex="1" parent="1">
          <mxGeometry x="112" y="24" width="60" height="30" as="geometry" />
        </mxCell>
        <mxCell id="DXJZPBngIMLDcMMttX4D-8" value="Order Rejected" style="text;strokeColor=none;fillColor=none;html=1;align=center;verticalAlign=middle;whiteSpace=wrap;rounded=0;fontSize=16;" vertex="1" parent="1">
          <mxGeometry x="318" y="-14" width="60" height="30" as="geometry" />
        </mxCell>
        <mxCell id="DXJZPBngIMLDcMMttX4D-9" value="Cancel Purchase" style="text;strokeColor=none;fillColor=none;html=1;align=center;verticalAlign=middle;whiteSpace=wrap;rounded=0;fontSize=16;" vertex="1" parent="1">
          <mxGeometry x="121" y="312" width="60" height="28" as="geometry" />
        </mxCell>
        <mxCell id="DXJZPBngIMLDcMMttX4D-10" value="View Purchase Order" style="text;strokeColor=none;fillColor=none;html=1;align=center;verticalAlign=middle;whiteSpace=wrap;rounded=0;fontSize=16;" vertex="1" parent="1">
          <mxGeometry x="348" y="110" width="60" height="30" as="geometry" />
        </mxCell>
        <mxCell id="DXJZPBngIMLDcMMttX4D-41" style="edgeStyle=none;curved=1;rounded=0;orthogonalLoop=1;jettySize=auto;html=1;exitX=1;exitY=0.5;exitDx=0;exitDy=0;entryX=0;entryY=0.5;entryDx=0;entryDy=0;fontSize=12;startSize=8;endSize=8;" edge="1" parent="1" source="DXJZPBngIMLDcMMttX4D-11" target="DXJZPBngIMLDcMMttX4D-6">
          <mxGeometry relative="1" as="geometry" />
        </mxCell>
        <mxCell id="DXJZPBngIMLDcMMttX4D-11" value="" style="ellipse;whiteSpace=wrap;html=1;" vertex="1" parent="1">
          <mxGeometry x="96" y="175" width="120" height="80" as="geometry" />
        </mxCell>
        <mxCell id="DXJZPBngIMLDcMMttX4D-13" value="" style="ellipse;whiteSpace=wrap;html=1;" vertex="1" parent="1">
          <mxGeometry x="291" y="-138" width="120" height="80" as="geometry" />
        </mxCell>
        <mxCell id="DXJZPBngIMLDcMMttX4D-21" style="edgeStyle=none;curved=1;rounded=0;orthogonalLoop=1;jettySize=auto;html=1;fontSize=12;startSize=8;endSize=8;" edge="1" parent="1" source="DXJZPBngIMLDcMMttX4D-14" target="DXJZPBngIMLDcMMttX4D-3">
          <mxGeometry relative="1" as="geometry" />
        </mxCell>
        <mxCell id="DXJZPBngIMLDcMMttX4D-14" value="Admin" style="shape=umlActor;verticalLabelPosition=bottom;verticalAlign=top;html=1;outlineConnect=0;" vertex="1" parent="1">
          <mxGeometry x="-119" y="9" width="30" height="60" as="geometry" />
        </mxCell>
        <mxCell id="DXJZPBngIMLDcMMttX4D-44" style="edgeStyle=none;curved=1;rounded=0;orthogonalLoop=1;jettySize=auto;html=1;fontSize=12;startSize=8;endSize=8;" edge="1" parent="1" source="DXJZPBngIMLDcMMttX4D-15" target="DXJZPBngIMLDcMMttX4D-11">
          <mxGeometry relative="1" as="geometry" />
        </mxCell>
        <mxCell id="DXJZPBngIMLDcMMttX4D-45" style="edgeStyle=none;curved=1;rounded=0;orthogonalLoop=1;jettySize=auto;html=1;entryX=0;entryY=0.5;entryDx=0;entryDy=0;fontSize=12;startSize=8;endSize=8;" edge="1" parent="1" source="DXJZPBngIMLDcMMttX4D-15" target="DXJZPBngIMLDcMMttX4D-4">
          <mxGeometry relative="1" as="geometry" />
        </mxCell>
        <mxCell id="DXJZPBngIMLDcMMttX4D-15" value="Manager" style="shape=umlActor;verticalLabelPosition=bottom;verticalAlign=top;html=1;outlineConnect=0;" vertex="1" parent="1">
          <mxGeometry x="-119" y="181" width="30" height="60" as="geometry" />
        </mxCell>
        <mxCell id="DXJZPBngIMLDcMMttX4D-16" value="Create Purchase Order" style="text;html=1;align=center;verticalAlign=middle;whiteSpace=wrap;rounded=0;fontSize=16;" vertex="1" parent="1">
          <mxGeometry x="126" y="196" width="60" height="30" as="geometry" />
        </mxCell>
        <mxCell id="DXJZPBngIMLDcMMttX4D-37" style="edgeStyle=none;curved=1;rounded=0;orthogonalLoop=1;jettySize=auto;html=1;entryX=1;entryY=0.5;entryDx=0;entryDy=0;fontSize=12;startSize=8;endSize=8;" edge="1" parent="1" source="DXJZPBngIMLDcMMttX4D-17" target="DXJZPBngIMLDcMMttX4D-6">
          <mxGeometry relative="1" as="geometry" />
        </mxCell>
        <mxCell id="DXJZPBngIMLDcMMttX4D-17" value="Employee" style="shape=umlActor;verticalLabelPosition=bottom;verticalAlign=top;html=1;outlineConnect=0;" vertex="1" parent="1">
          <mxGeometry x="566" y="81" width="30" height="60" as="geometry" />
        </mxCell>
        <mxCell id="DXJZPBngIMLDcMMttX4D-20" value="Apporve Purchase Orders" style="text;strokeColor=none;fillColor=none;html=1;align=center;verticalAlign=middle;whiteSpace=wrap;rounded=0;fontSize=16;" vertex="1" parent="1">
          <mxGeometry x="321" y="-109" width="60" height="30" as="geometry" />
        </mxCell>
        <mxCell id="DXJZPBngIMLDcMMttX4D-30" value="&amp;lt;&amp;lt;extends&amp;gt;&amp;gt;" style="text;html=1;align=center;verticalAlign=middle;whiteSpace=wrap;rounded=0;fontSize=16;rotation=-15;" vertex="1" parent="1">
          <mxGeometry x="211" y="-10" width="60" height="30" as="geometry" />
        </mxCell>
        <mxCell id="DXJZPBngIMLDcMMttX4D-31" value="&amp;lt;&amp;lt;extends&amp;gt;&amp;gt;" style="text;html=1;align=center;verticalAlign=middle;whiteSpace=wrap;rounded=0;fontSize=16;rotation=-55;" vertex="1" parent="1">
          <mxGeometry x="231.21" y="235.41" width="59" height="30" as="geometry" />
        </mxCell>
        <mxCell id="DXJZPBngIMLDcMMttX4D-32" value="&amp;lt;&amp;lt;extends&amp;gt;&amp;gt;" style="text;html=1;align=center;verticalAlign=middle;whiteSpace=wrap;rounded=0;fontSize=16;rotation=-45;" vertex="1" parent="1">
          <mxGeometry x="220" y="147" width="60" height="30" as="geometry" />
        </mxCell>
        <mxCell id="DXJZPBngIMLDcMMttX4D-34" style="edgeStyle=none;curved=1;rounded=0;orthogonalLoop=1;jettySize=auto;html=1;exitX=1;exitY=0.5;exitDx=0;exitDy=0;entryX=0.071;entryY=0.654;entryDx=0;entryDy=0;entryPerimeter=0;fontSize=12;startSize=8;endSize=8;" edge="1" parent="1" source="DXJZPBngIMLDcMMttX4D-3" target="DXJZPBngIMLDcMMttX4D-2">
          <mxGeometry relative="1" as="geometry" />
        </mxCell>
        <mxCell id="DXJZPBngIMLDcMMttX4D-35" value="&amp;lt;&amp;lt;extends&amp;gt;&amp;gt;" style="text;html=1;align=center;verticalAlign=middle;whiteSpace=wrap;rounded=0;fontSize=16;rotation=-30;" vertex="1" parent="1">
          <mxGeometry x="199" y="-62" width="60" height="30" as="geometry" />
        </mxCell>
        <mxCell id="DXJZPBngIMLDcMMttX4D-39" value="&amp;lt;&amp;lt;include&amp;gt;&amp;gt;" style="text;html=1;align=center;verticalAlign=middle;whiteSpace=wrap;rounded=0;fontSize=16;rotation=0;" vertex="1" parent="1">
          <mxGeometry x="247" y="51" width="60" height="30" as="geometry" />
        </mxCell>
        <mxCell id="DXJZPBngIMLDcMMttX4D-43" value="Purchase Orders use case spec" style="text;html=1;align=center;verticalAlign=middle;whiteSpace=wrap;rounded=0;fontSize=16;" vertex="1" parent="1">
          <mxGeometry x="75" y="-246" width="257" height="79" as="geometry" />
        </mxCell>
      </root>
    </mxGraphModel>
  </diagram>
  <diagram id="zTB6yqDOn4gvXUhf_rNV" name="Page-2">
    <mxGraphModel dx="1017" dy="1221" grid="0" gridSize="10" guides="1" tooltips="1" connect="1" arrows="1" fold="1" page="0" pageScale="1" pageWidth="850" pageHeight="1100" math="0" shadow="0">
      <root>
        <mxCell id="0" />
        <mxCell id="1" parent="0" />
        <mxCell id="6XokOQbXLFKj7Yi1ZXRZ-1" value="Patient Admission Use Case" style="text;html=1;align=center;verticalAlign=middle;whiteSpace=wrap;rounded=0;fontSize=16;" vertex="1" parent="1">
          <mxGeometry x="114" y="-15" width="210" height="30" as="geometry" />
        </mxCell>
        <mxCell id="6XokOQbXLFKj7Yi1ZXRZ-2" value="" style="rounded=0;whiteSpace=wrap;html=1;" vertex="1" parent="1">
          <mxGeometry x="6" y="15" width="423" height="611" as="geometry" />
        </mxCell>
        <mxCell id="6XokOQbXLFKj7Yi1ZXRZ-3" value="" style="ellipse;whiteSpace=wrap;html=1;" vertex="1" parent="1">
          <mxGeometry x="86.5" y="527" width="120" height="80" as="geometry" />
        </mxCell>
        <mxCell id="6XokOQbXLFKj7Yi1ZXRZ-14" style="edgeStyle=none;curved=1;rounded=0;orthogonalLoop=1;jettySize=auto;html=1;entryX=0;entryY=1;entryDx=0;entryDy=0;fontSize=12;startSize=8;endSize=8;" edge="1" parent="1" source="6XokOQbXLFKj7Yi1ZXRZ-4" target="6XokOQbXLFKj7Yi1ZXRZ-12">
          <mxGeometry relative="1" as="geometry" />
        </mxCell>
        <mxCell id="6XokOQbXLFKj7Yi1ZXRZ-4" value="" style="ellipse;whiteSpace=wrap;html=1;" vertex="1" parent="1">
          <mxGeometry x="86.5" y="152" width="120" height="80" as="geometry" />
        </mxCell>
        <mxCell id="6XokOQbXLFKj7Yi1ZXRZ-25" style="edgeStyle=none;curved=1;rounded=0;orthogonalLoop=1;jettySize=auto;html=1;entryX=0;entryY=0.5;entryDx=0;entryDy=0;fontSize=12;startSize=8;endSize=8;" edge="1" parent="1" source="6XokOQbXLFKj7Yi1ZXRZ-5" target="6XokOQbXLFKj7Yi1ZXRZ-6">
          <mxGeometry relative="1" as="geometry" />
        </mxCell>
        <mxCell id="6XokOQbXLFKj7Yi1ZXRZ-29" style="edgeStyle=none;curved=1;rounded=0;orthogonalLoop=1;jettySize=auto;html=1;entryX=0;entryY=0.5;entryDx=0;entryDy=0;fontSize=12;startSize=8;endSize=8;" edge="1" parent="1" source="6XokOQbXLFKj7Yi1ZXRZ-5" target="6XokOQbXLFKj7Yi1ZXRZ-27">
          <mxGeometry relative="1" as="geometry" />
        </mxCell>
        <mxCell id="6XokOQbXLFKj7Yi1ZXRZ-5" value="" style="ellipse;whiteSpace=wrap;html=1;" vertex="1" parent="1">
          <mxGeometry x="88.5" y="332" width="120" height="80" as="geometry" />
        </mxCell>
        <mxCell id="6XokOQbXLFKj7Yi1ZXRZ-6" value="" style="ellipse;whiteSpace=wrap;html=1;" vertex="1" parent="1">
          <mxGeometry x="289" y="332" width="120" height="80" as="geometry" />
        </mxCell>
        <mxCell id="6XokOQbXLFKj7Yi1ZXRZ-11" style="edgeStyle=none;curved=1;rounded=0;orthogonalLoop=1;jettySize=auto;html=1;entryX=1;entryY=0.5;entryDx=0;entryDy=0;fontSize=12;startSize=8;endSize=8;" edge="1" parent="1" source="6XokOQbXLFKj7Yi1ZXRZ-7" target="6XokOQbXLFKj7Yi1ZXRZ-4">
          <mxGeometry relative="1" as="geometry" />
        </mxCell>
        <mxCell id="6XokOQbXLFKj7Yi1ZXRZ-7" value="Patient" style="shape=umlActor;verticalLabelPosition=bottom;verticalAlign=top;html=1;outlineConnect=0;" vertex="1" parent="1">
          <mxGeometry x="442" y="191" width="30" height="60" as="geometry" />
        </mxCell>
        <mxCell id="6XokOQbXLFKj7Yi1ZXRZ-20" style="edgeStyle=none;curved=1;rounded=0;orthogonalLoop=1;jettySize=auto;html=1;entryX=0.5;entryY=0;entryDx=0;entryDy=0;fontSize=12;startSize=8;endSize=8;" edge="1" parent="1" source="6XokOQbXLFKj7Yi1ZXRZ-8" target="6XokOQbXLFKj7Yi1ZXRZ-5">
          <mxGeometry relative="1" as="geometry" />
        </mxCell>
        <mxCell id="6XokOQbXLFKj7Yi1ZXRZ-40" style="edgeStyle=none;curved=1;rounded=0;orthogonalLoop=1;jettySize=auto;html=1;entryX=0;entryY=0.5;entryDx=0;entryDy=0;fontSize=12;startSize=8;endSize=8;" edge="1" parent="1" source="6XokOQbXLFKj7Yi1ZXRZ-8" target="6XokOQbXLFKj7Yi1ZXRZ-38">
          <mxGeometry relative="1" as="geometry" />
        </mxCell>
        <mxCell id="6XokOQbXLFKj7Yi1ZXRZ-8" value="Admin" style="shape=umlActor;verticalLabelPosition=bottom;verticalAlign=top;html=1;outlineConnect=0;" vertex="1" parent="1">
          <mxGeometry x="-102" y="51" width="30" height="60" as="geometry" />
        </mxCell>
        <mxCell id="6XokOQbXLFKj7Yi1ZXRZ-17" style="edgeStyle=none;curved=1;rounded=0;orthogonalLoop=1;jettySize=auto;html=1;entryX=0.5;entryY=0;entryDx=0;entryDy=0;fontSize=12;startSize=8;endSize=8;" edge="1" parent="1" source="6XokOQbXLFKj7Yi1ZXRZ-9" target="6XokOQbXLFKj7Yi1ZXRZ-5">
          <mxGeometry relative="1" as="geometry" />
        </mxCell>
        <mxCell id="6XokOQbXLFKj7Yi1ZXRZ-33" style="edgeStyle=none;curved=1;rounded=0;orthogonalLoop=1;jettySize=auto;html=1;entryX=0;entryY=0.5;entryDx=0;entryDy=0;fontSize=12;startSize=8;endSize=8;" edge="1" parent="1" source="6XokOQbXLFKj7Yi1ZXRZ-9" target="6XokOQbXLFKj7Yi1ZXRZ-3">
          <mxGeometry relative="1" as="geometry" />
        </mxCell>
        <mxCell id="6XokOQbXLFKj7Yi1ZXRZ-9" value="Receptionist" style="shape=umlActor;verticalLabelPosition=bottom;verticalAlign=top;html=1;outlineConnect=0;" vertex="1" parent="1">
          <mxGeometry x="-100" y="199" width="30" height="60" as="geometry" />
        </mxCell>
        <mxCell id="6XokOQbXLFKj7Yi1ZXRZ-10" value="Register" style="text;html=1;align=center;verticalAlign=middle;whiteSpace=wrap;rounded=0;fontSize=16;" vertex="1" parent="1">
          <mxGeometry x="118.5" y="174" width="60" height="30" as="geometry" />
        </mxCell>
        <mxCell id="6XokOQbXLFKj7Yi1ZXRZ-12" value="" style="ellipse;whiteSpace=wrap;html=1;" vertex="1" parent="1">
          <mxGeometry x="306" y="100" width="120" height="80" as="geometry" />
        </mxCell>
        <mxCell id="6XokOQbXLFKj7Yi1ZXRZ-13" value="Update Details" style="text;html=1;align=center;verticalAlign=middle;whiteSpace=wrap;rounded=0;fontSize=16;" vertex="1" parent="1">
          <mxGeometry x="336" y="128" width="60" height="30" as="geometry" />
        </mxCell>
        <mxCell id="6XokOQbXLFKj7Yi1ZXRZ-15" value="&amp;lt;&amp;lt;extends&amp;gt;&amp;gt;" style="text;html=1;align=center;verticalAlign=middle;whiteSpace=wrap;rounded=0;fontSize=16;rotation=-10;" vertex="1" parent="1">
          <mxGeometry x="232" y="150" width="60" height="30" as="geometry" />
        </mxCell>
        <mxCell id="6XokOQbXLFKj7Yi1ZXRZ-36" style="edgeStyle=none;curved=1;rounded=0;orthogonalLoop=1;jettySize=auto;html=1;entryX=0.5;entryY=0;entryDx=0;entryDy=0;fontSize=12;startSize=8;endSize=8;" edge="1" parent="1" target="6XokOQbXLFKj7Yi1ZXRZ-3">
          <mxGeometry relative="1" as="geometry">
            <mxPoint x="149" y="411" as="sourcePoint" />
          </mxGeometry>
        </mxCell>
        <mxCell id="6XokOQbXLFKj7Yi1ZXRZ-16" value="Approve Registration" style="text;html=1;align=center;verticalAlign=middle;whiteSpace=wrap;rounded=0;fontSize=16;" vertex="1" parent="1">
          <mxGeometry x="116.5" y="357" width="60" height="30" as="geometry" />
        </mxCell>
        <mxCell id="6XokOQbXLFKj7Yi1ZXRZ-23" value="" style="endArrow=none;dashed=1;html=1;rounded=0;fontSize=12;startSize=8;endSize=8;curved=1;entryX=0.5;entryY=0;entryDx=0;entryDy=0;" edge="1" parent="1" target="6XokOQbXLFKj7Yi1ZXRZ-5">
          <mxGeometry width="50" height="50" relative="1" as="geometry">
            <mxPoint x="156" y="230" as="sourcePoint" />
            <mxPoint x="217" y="85" as="targetPoint" />
          </mxGeometry>
        </mxCell>
        <mxCell id="6XokOQbXLFKj7Yi1ZXRZ-24" value="Verify Insurance" style="text;html=1;align=center;verticalAlign=middle;whiteSpace=wrap;rounded=0;fontSize=16;" vertex="1" parent="1">
          <mxGeometry x="319" y="355" width="60" height="30" as="geometry" />
        </mxCell>
        <mxCell id="6XokOQbXLFKj7Yi1ZXRZ-26" value="&amp;lt;&amp;lt;include&amp;gt;&amp;gt;" style="text;html=1;align=center;verticalAlign=middle;whiteSpace=wrap;rounded=0;fontSize=16;" vertex="1" parent="1">
          <mxGeometry x="216" y="342" width="60" height="30" as="geometry" />
        </mxCell>
        <mxCell id="6XokOQbXLFKj7Yi1ZXRZ-27" value="" style="ellipse;whiteSpace=wrap;html=1;" vertex="1" parent="1">
          <mxGeometry x="289" y="438" width="120" height="80" as="geometry" />
        </mxCell>
        <mxCell id="6XokOQbXLFKj7Yi1ZXRZ-28" value="Assign Room" style="text;html=1;align=center;verticalAlign=middle;whiteSpace=wrap;rounded=0;fontSize=16;" vertex="1" parent="1">
          <mxGeometry x="321" y="463" width="60" height="30" as="geometry" />
        </mxCell>
        <mxCell id="6XokOQbXLFKj7Yi1ZXRZ-30" value="&amp;lt;,extend&amp;gt;&amp;gt;" style="text;html=1;align=center;verticalAlign=middle;whiteSpace=wrap;rounded=0;fontSize=16;rotation=45;" vertex="1" parent="1">
          <mxGeometry x="219" y="405" width="60" height="30" as="geometry" />
        </mxCell>
        <mxCell id="6XokOQbXLFKj7Yi1ZXRZ-31" value="&amp;lt;&amp;lt;extend&amp;gt;&amp;gt;" style="text;html=1;align=center;verticalAlign=middle;whiteSpace=wrap;rounded=0;fontSize=16;rotation=90;" vertex="1" parent="1">
          <mxGeometry x="134" y="455" width="60" height="30" as="geometry" />
        </mxCell>
        <mxCell id="6XokOQbXLFKj7Yi1ZXRZ-32" value="Cancel Registration" style="text;html=1;align=center;verticalAlign=middle;whiteSpace=wrap;rounded=0;fontSize=16;" vertex="1" parent="1">
          <mxGeometry x="116.5" y="552" width="60" height="30" as="geometry" />
        </mxCell>
        <mxCell id="6XokOQbXLFKj7Yi1ZXRZ-38" value="" style="ellipse;whiteSpace=wrap;html=1;" vertex="1" parent="1">
          <mxGeometry x="89" y="35" width="120" height="80" as="geometry" />
        </mxCell>
        <mxCell id="6XokOQbXLFKj7Yi1ZXRZ-39" value="View Registration List" style="text;html=1;align=center;verticalAlign=middle;whiteSpace=wrap;rounded=0;fontSize=16;" vertex="1" parent="1">
          <mxGeometry x="118.5" y="60" width="60" height="30" as="geometry" />
        </mxCell>
      </root>
    </mxGraphModel>
  </diagram>
  <diagram id="w-Ws_v_r-dMBgAfrUgAB" name="Page-3">
    <mxGraphModel dx="988" dy="1085" grid="0" gridSize="10" guides="1" tooltips="1" connect="1" arrows="1" fold="1" page="0" pageScale="1" pageWidth="850" pageHeight="1100" math="0" shadow="0">
      <root>
        <mxCell id="0" />
        <mxCell id="1" parent="0" />
        <mxCell id="RGfr8Jt0xajtY7Bnpl3W-1" value="" style="rounded=0;whiteSpace=wrap;html=1;" vertex="1" parent="1">
          <mxGeometry x="35" y="-212" width="388" height="595" as="geometry" />
        </mxCell>
        <mxCell id="RGfr8Jt0xajtY7Bnpl3W-12" style="edgeStyle=none;curved=1;rounded=0;orthogonalLoop=1;jettySize=auto;html=1;entryX=0;entryY=0.5;entryDx=0;entryDy=0;fontSize=12;startSize=8;endSize=8;" edge="1" parent="1" source="RGfr8Jt0xajtY7Bnpl3W-2" target="RGfr8Jt0xajtY7Bnpl3W-6">
          <mxGeometry relative="1" as="geometry" />
        </mxCell>
        <mxCell id="RGfr8Jt0xajtY7Bnpl3W-15" style="edgeStyle=none;curved=1;rounded=0;orthogonalLoop=1;jettySize=auto;html=1;entryX=0;entryY=1;entryDx=0;entryDy=0;fontSize=12;startSize=8;endSize=8;" edge="1" parent="1" source="RGfr8Jt0xajtY7Bnpl3W-2" target="RGfr8Jt0xajtY7Bnpl3W-8">
          <mxGeometry relative="1" as="geometry" />
        </mxCell>
        <mxCell id="RGfr8Jt0xajtY7Bnpl3W-28" style="edgeStyle=none;curved=1;rounded=0;orthogonalLoop=1;jettySize=auto;html=1;entryX=0;entryY=0;entryDx=0;entryDy=0;fontSize=12;startSize=8;endSize=8;" edge="1" parent="1" source="RGfr8Jt0xajtY7Bnpl3W-2" target="RGfr8Jt0xajtY7Bnpl3W-7">
          <mxGeometry relative="1" as="geometry" />
        </mxCell>
        <mxCell id="RGfr8Jt0xajtY7Bnpl3W-35" style="edgeStyle=none;curved=1;rounded=0;orthogonalLoop=1;jettySize=auto;html=1;entryX=0.5;entryY=1;entryDx=0;entryDy=0;fontSize=12;startSize=8;endSize=8;" edge="1" parent="1" source="RGfr8Jt0xajtY7Bnpl3W-2" target="RGfr8Jt0xajtY7Bnpl3W-34">
          <mxGeometry relative="1" as="geometry" />
        </mxCell>
        <mxCell id="RGfr8Jt0xajtY7Bnpl3W-2" value="" style="ellipse;whiteSpace=wrap;html=1;" vertex="1" parent="1">
          <mxGeometry x="91" y="-32" width="120" height="80" as="geometry" />
        </mxCell>
        <mxCell id="RGfr8Jt0xajtY7Bnpl3W-32" style="edgeStyle=none;curved=1;rounded=0;orthogonalLoop=1;jettySize=auto;html=1;entryX=0;entryY=0.5;entryDx=0;entryDy=0;fontSize=12;startSize=8;endSize=8;" edge="1" parent="1" source="RGfr8Jt0xajtY7Bnpl3W-3" target="RGfr8Jt0xajtY7Bnpl3W-8">
          <mxGeometry relative="1" as="geometry" />
        </mxCell>
        <mxCell id="RGfr8Jt0xajtY7Bnpl3W-37" style="edgeStyle=none;curved=1;rounded=0;orthogonalLoop=1;jettySize=auto;html=1;fontSize=12;startSize=8;endSize=8;entryX=0;entryY=0.5;entryDx=0;entryDy=0;" edge="1" parent="1" source="RGfr8Jt0xajtY7Bnpl3W-3" target="RGfr8Jt0xajtY7Bnpl3W-34">
          <mxGeometry relative="1" as="geometry">
            <mxPoint x="214.42856270926336" y="-109.28567504882812" as="targetPoint" />
          </mxGeometry>
        </mxCell>
        <mxCell id="RGfr8Jt0xajtY7Bnpl3W-3" value="Doctor" style="shape=umlActor;verticalLabelPosition=bottom;verticalAlign=top;html=1;outlineConnect=0;" vertex="1" parent="1">
          <mxGeometry x="-26" y="-42" width="30" height="60" as="geometry" />
        </mxCell>
        <mxCell id="RGfr8Jt0xajtY7Bnpl3W-19" style="edgeStyle=none;curved=1;rounded=0;orthogonalLoop=1;jettySize=auto;html=1;entryX=0;entryY=1;entryDx=0;entryDy=0;fontSize=12;startSize=8;endSize=8;" edge="1" parent="1" source="RGfr8Jt0xajtY7Bnpl3W-4" target="RGfr8Jt0xajtY7Bnpl3W-2">
          <mxGeometry relative="1" as="geometry" />
        </mxCell>
        <mxCell id="RGfr8Jt0xajtY7Bnpl3W-27" style="edgeStyle=none;curved=1;rounded=0;orthogonalLoop=1;jettySize=auto;html=1;entryX=0;entryY=0.5;entryDx=0;entryDy=0;fontSize=12;startSize=8;endSize=8;" edge="1" parent="1" source="RGfr8Jt0xajtY7Bnpl3W-4" target="RGfr8Jt0xajtY7Bnpl3W-7">
          <mxGeometry relative="1" as="geometry" />
        </mxCell>
        <mxCell id="RGfr8Jt0xajtY7Bnpl3W-4" value="Receptionist" style="shape=umlActor;verticalLabelPosition=bottom;verticalAlign=top;html=1;outlineConnect=0;" vertex="1" parent="1">
          <mxGeometry x="-26" y="179" width="30" height="60" as="geometry" />
        </mxCell>
        <mxCell id="RGfr8Jt0xajtY7Bnpl3W-22" style="edgeStyle=none;curved=1;rounded=0;orthogonalLoop=1;jettySize=auto;html=1;entryX=1;entryY=0.5;entryDx=0;entryDy=0;fontSize=12;startSize=8;endSize=8;" edge="1" parent="1" source="RGfr8Jt0xajtY7Bnpl3W-5" target="RGfr8Jt0xajtY7Bnpl3W-20">
          <mxGeometry relative="1" as="geometry" />
        </mxCell>
        <mxCell id="RGfr8Jt0xajtY7Bnpl3W-26" style="edgeStyle=none;curved=1;rounded=0;orthogonalLoop=1;jettySize=auto;html=1;entryX=1;entryY=0.5;entryDx=0;entryDy=0;fontSize=12;startSize=8;endSize=8;" edge="1" parent="1" source="RGfr8Jt0xajtY7Bnpl3W-5" target="RGfr8Jt0xajtY7Bnpl3W-7">
          <mxGeometry relative="1" as="geometry" />
        </mxCell>
        <mxCell id="RGfr8Jt0xajtY7Bnpl3W-5" value="Patient" style="shape=umlActor;verticalLabelPosition=bottom;verticalAlign=top;html=1;outlineConnect=0;" vertex="1" parent="1">
          <mxGeometry x="453" y="167" width="30" height="60" as="geometry" />
        </mxCell>
        <mxCell id="RGfr8Jt0xajtY7Bnpl3W-6" value="" style="ellipse;whiteSpace=wrap;html=1;" vertex="1" parent="1">
          <mxGeometry x="300" y="-16" width="120" height="80" as="geometry" />
        </mxCell>
        <mxCell id="RGfr8Jt0xajtY7Bnpl3W-7" value="" style="ellipse;whiteSpace=wrap;html=1;" vertex="1" parent="1">
          <mxGeometry x="141" y="279" width="120" height="80" as="geometry" />
        </mxCell>
        <mxCell id="RGfr8Jt0xajtY7Bnpl3W-8" value="" style="ellipse;whiteSpace=wrap;html=1;" vertex="1" parent="1">
          <mxGeometry x="283" y="-112" width="120" height="80" as="geometry" />
        </mxCell>
        <mxCell id="RGfr8Jt0xajtY7Bnpl3W-10" value="Schedule Appointment" style="text;html=1;align=center;verticalAlign=middle;whiteSpace=wrap;rounded=0;" vertex="1" parent="1">
          <mxGeometry x="121" y="-7" width="60" height="30" as="geometry" />
        </mxCell>
        <mxCell id="RGfr8Jt0xajtY7Bnpl3W-11" value="Send Appointment Reminder" style="text;html=1;align=center;verticalAlign=middle;whiteSpace=wrap;rounded=0;" vertex="1" parent="1">
          <mxGeometry x="330" y="4" width="60" height="30" as="geometry" />
        </mxCell>
        <mxCell id="RGfr8Jt0xajtY7Bnpl3W-13" value="Cancel Appointment" style="text;html=1;align=center;verticalAlign=middle;whiteSpace=wrap;rounded=0;" vertex="1" parent="1">
          <mxGeometry x="171" y="304" width="60" height="30" as="geometry" />
        </mxCell>
        <mxCell id="RGfr8Jt0xajtY7Bnpl3W-14" value="Reschedule Appointment" style="text;html=1;align=center;verticalAlign=middle;whiteSpace=wrap;rounded=0;" vertex="1" parent="1">
          <mxGeometry x="313" y="-87" width="60" height="30" as="geometry" />
        </mxCell>
        <mxCell id="RGfr8Jt0xajtY7Bnpl3W-16" value="&amp;lt;&amp;lt;include&amp;gt;&amp;gt;" style="text;html=1;align=center;verticalAlign=middle;whiteSpace=wrap;rounded=0;" vertex="1" parent="1">
          <mxGeometry x="222" y="-12" width="61" height="30" as="geometry" />
        </mxCell>
        <mxCell id="RGfr8Jt0xajtY7Bnpl3W-17" value="&amp;lt;&amp;lt;extend&amp;gt;&amp;gt;" style="text;html=1;align=center;verticalAlign=middle;whiteSpace=wrap;rounded=0;rotation=-15;" vertex="1" parent="1">
          <mxGeometry x="206" y="-51" width="61" height="30" as="geometry" />
        </mxCell>
        <mxCell id="RGfr8Jt0xajtY7Bnpl3W-18" style="edgeStyle=none;curved=1;rounded=0;orthogonalLoop=1;jettySize=auto;html=1;exitX=0;exitY=0.5;exitDx=0;exitDy=0;fontSize=12;startSize=8;endSize=8;" edge="1" parent="1" source="RGfr8Jt0xajtY7Bnpl3W-14" target="RGfr8Jt0xajtY7Bnpl3W-14">
          <mxGeometry relative="1" as="geometry" />
        </mxCell>
        <mxCell id="RGfr8Jt0xajtY7Bnpl3W-20" value="" style="ellipse;whiteSpace=wrap;html=1;" vertex="1" parent="1">
          <mxGeometry x="169" y="159" width="120" height="80" as="geometry" />
        </mxCell>
        <mxCell id="RGfr8Jt0xajtY7Bnpl3W-23" value="Request Appointment" style="text;html=1;align=center;verticalAlign=middle;whiteSpace=wrap;rounded=0;" vertex="1" parent="1">
          <mxGeometry x="199" y="186" width="60" height="30" as="geometry" />
        </mxCell>
        <mxCell id="RGfr8Jt0xajtY7Bnpl3W-29" value="&amp;lt;&amp;lt;extend&amp;gt;&amp;gt;" style="text;html=1;align=center;verticalAlign=middle;whiteSpace=wrap;rounded=0;rotation=90;" vertex="1" parent="1">
          <mxGeometry x="113" y="161" width="61" height="30" as="geometry" />
        </mxCell>
        <mxCell id="RGfr8Jt0xajtY7Bnpl3W-30" style="edgeStyle=none;curved=1;rounded=0;orthogonalLoop=1;jettySize=auto;html=1;exitX=0.5;exitY=1;exitDx=0;exitDy=0;fontSize=12;startSize=8;endSize=8;" edge="1" parent="1" source="RGfr8Jt0xajtY7Bnpl3W-8" target="RGfr8Jt0xajtY7Bnpl3W-8">
          <mxGeometry relative="1" as="geometry" />
        </mxCell>
        <mxCell id="RGfr8Jt0xajtY7Bnpl3W-34" value="" style="ellipse;whiteSpace=wrap;html=1;" vertex="1" parent="1">
          <mxGeometry x="228" y="-210" width="120" height="80" as="geometry" />
        </mxCell>
        <mxCell id="RGfr8Jt0xajtY7Bnpl3W-36" value="View Appointment" style="text;html=1;align=center;verticalAlign=middle;whiteSpace=wrap;rounded=0;" vertex="1" parent="1">
          <mxGeometry x="258" y="-185" width="60" height="30" as="geometry" />
        </mxCell>
        <mxCell id="RGfr8Jt0xajtY7Bnpl3W-40" value="&amp;lt;include&amp;gt;&amp;gt;" style="text;html=1;align=center;verticalAlign=middle;whiteSpace=wrap;rounded=0;rotation=-45;" vertex="1" parent="1">
          <mxGeometry x="192" y="-98" width="61" height="30" as="geometry" />
        </mxCell>
        <mxCell id="RGfr8Jt0xajtY7Bnpl3W-41" value="" style="endArrow=none;dashed=1;html=1;rounded=0;fontSize=12;startSize=8;endSize=8;curved=1;exitX=0.5;exitY=0;exitDx=0;exitDy=0;" edge="1" parent="1" source="RGfr8Jt0xajtY7Bnpl3W-20">
          <mxGeometry width="50" height="50" relative="1" as="geometry">
            <mxPoint x="207" y="119" as="sourcePoint" />
            <mxPoint x="156" y="51" as="targetPoint" />
          </mxGeometry>
        </mxCell>
      </root>
    </mxGraphModel>
  </diagram>
  <diagram id="kdjBh74vcmmTw8pbNORb" name="Page-4">
    <mxGraphModel dx="900" dy="982" grid="0" gridSize="10" guides="1" tooltips="1" connect="1" arrows="1" fold="1" page="0" pageScale="1" pageWidth="850" pageHeight="1100" math="0" shadow="0">
      <root>
        <mxCell id="0" />
        <mxCell id="1" parent="0" />
        <mxCell id="RkT-aviXBxrdsNRnba6E-1" value="" style="rounded=0;whiteSpace=wrap;html=1;" vertex="1" parent="1">
          <mxGeometry x="10" y="-77" width="389" height="464" as="geometry" />
        </mxCell>
        <mxCell id="RkT-aviXBxrdsNRnba6E-2" value="Admin" style="shape=umlActor;verticalLabelPosition=bottom;verticalAlign=top;html=1;outlineConnect=0;" vertex="1" parent="1">
          <mxGeometry x="-41" y="41" width="30" height="60" as="geometry" />
        </mxCell>
        <mxCell id="W4Z_iMovenIpP-twtgwt-18" style="edgeStyle=none;curved=1;rounded=0;orthogonalLoop=1;jettySize=auto;html=1;fontSize=12;startSize=8;endSize=8;" edge="1" parent="1" source="RkT-aviXBxrdsNRnba6E-3" target="RkT-aviXBxrdsNRnba6E-6">
          <mxGeometry relative="1" as="geometry" />
        </mxCell>
        <mxCell id="W4Z_iMovenIpP-twtgwt-20" style="edgeStyle=none;curved=1;rounded=0;orthogonalLoop=1;jettySize=auto;html=1;fontSize=12;startSize=8;endSize=8;" edge="1" parent="1" source="RkT-aviXBxrdsNRnba6E-3" target="W4Z_iMovenIpP-twtgwt-7">
          <mxGeometry relative="1" as="geometry" />
        </mxCell>
        <mxCell id="RkT-aviXBxrdsNRnba6E-3" value="Receptionist" style="shape=umlActor;verticalLabelPosition=bottom;verticalAlign=top;html=1;outlineConnect=0;" vertex="1" parent="1">
          <mxGeometry x="-41" y="267" width="30" height="60" as="geometry" />
        </mxCell>
        <mxCell id="W4Z_iMovenIpP-twtgwt-14" style="edgeStyle=none;curved=1;rounded=0;orthogonalLoop=1;jettySize=auto;html=1;fontSize=12;startSize=8;endSize=8;" edge="1" parent="1" source="RkT-aviXBxrdsNRnba6E-4" target="RkT-aviXBxrdsNRnba6E-7">
          <mxGeometry relative="1" as="geometry" />
        </mxCell>
        <mxCell id="W4Z_iMovenIpP-twtgwt-15" style="edgeStyle=none;curved=1;rounded=0;orthogonalLoop=1;jettySize=auto;html=1;entryX=1;entryY=0.5;entryDx=0;entryDy=0;fontSize=12;startSize=8;endSize=8;" edge="1" parent="1" source="RkT-aviXBxrdsNRnba6E-4" target="RkT-aviXBxrdsNRnba6E-8">
          <mxGeometry relative="1" as="geometry" />
        </mxCell>
        <mxCell id="W4Z_iMovenIpP-twtgwt-16" style="edgeStyle=none;curved=1;rounded=0;orthogonalLoop=1;jettySize=auto;html=1;entryX=1;entryY=0.5;entryDx=0;entryDy=0;fontSize=12;startSize=8;endSize=8;" edge="1" parent="1" source="RkT-aviXBxrdsNRnba6E-4" target="W4Z_iMovenIpP-twtgwt-9">
          <mxGeometry relative="1" as="geometry" />
        </mxCell>
        <mxCell id="RkT-aviXBxrdsNRnba6E-4" value="Patient" style="shape=umlActor;verticalLabelPosition=bottom;verticalAlign=top;html=1;outlineConnect=0;" vertex="1" parent="1">
          <mxGeometry x="426" y="160" width="30" height="60" as="geometry" />
        </mxCell>
        <mxCell id="RkT-aviXBxrdsNRnba6E-5" value="" style="ellipse;whiteSpace=wrap;html=1;" vertex="1" parent="1">
          <mxGeometry x="130" y="19" width="120" height="80" as="geometry" />
        </mxCell>
        <mxCell id="RkT-aviXBxrdsNRnba6E-6" value="" style="ellipse;whiteSpace=wrap;html=1;" vertex="1" parent="1">
          <mxGeometry x="124" y="105" width="120" height="80" as="geometry" />
        </mxCell>
        <mxCell id="RkT-aviXBxrdsNRnba6E-7" value="" style="ellipse;whiteSpace=wrap;html=1;" vertex="1" parent="1">
          <mxGeometry x="244" y="165" width="120" height="80" as="geometry" />
        </mxCell>
        <mxCell id="RkT-aviXBxrdsNRnba6E-8" value="" style="ellipse;whiteSpace=wrap;html=1;" vertex="1" parent="1">
          <mxGeometry x="236" y="264" width="120" height="80" as="geometry" />
        </mxCell>
        <mxCell id="W4Z_iMovenIpP-twtgwt-1" value="Create Receipt" style="text;html=1;align=center;verticalAlign=middle;whiteSpace=wrap;rounded=0;" vertex="1" parent="1">
          <mxGeometry x="154" y="130" width="60" height="30" as="geometry" />
        </mxCell>
        <mxCell id="W4Z_iMovenIpP-twtgwt-2" value="View Receipt" style="text;html=1;align=center;verticalAlign=middle;whiteSpace=wrap;rounded=0;" vertex="1" parent="1">
          <mxGeometry x="273" y="190" width="60" height="30" as="geometry" />
        </mxCell>
        <mxCell id="W4Z_iMovenIpP-twtgwt-3" value="Make Payment" style="text;html=1;align=center;verticalAlign=middle;whiteSpace=wrap;rounded=0;" vertex="1" parent="1">
          <mxGeometry x="270" y="289" width="60" height="30" as="geometry" />
        </mxCell>
        <mxCell id="W4Z_iMovenIpP-twtgwt-4" value="Process Payment" style="text;html=1;align=center;verticalAlign=middle;whiteSpace=wrap;rounded=0;" vertex="1" parent="1">
          <mxGeometry x="158" y="51" width="60" height="30" as="geometry" />
        </mxCell>
        <mxCell id="W4Z_iMovenIpP-twtgwt-7" value="" style="ellipse;whiteSpace=wrap;html=1;" vertex="1" parent="1">
          <mxGeometry x="120" y="196" width="120" height="80" as="geometry" />
        </mxCell>
        <mxCell id="W4Z_iMovenIpP-twtgwt-8" value="Issue Receipt" style="text;html=1;align=center;verticalAlign=middle;whiteSpace=wrap;rounded=0;" vertex="1" parent="1">
          <mxGeometry x="150" y="221" width="60" height="30" as="geometry" />
        </mxCell>
        <mxCell id="W4Z_iMovenIpP-twtgwt-9" value="" style="ellipse;whiteSpace=wrap;html=1;" vertex="1" parent="1">
          <mxGeometry x="244" y="-61" width="120" height="80" as="geometry" />
        </mxCell>
        <mxCell id="W4Z_iMovenIpP-twtgwt-10" value="View Billing History" style="text;html=1;align=center;verticalAlign=middle;whiteSpace=wrap;rounded=0;" vertex="1" parent="1">
          <mxGeometry x="274" y="-36" width="60" height="30" as="geometry" />
        </mxCell>
        <mxCell id="W4Z_iMovenIpP-twtgwt-11" value="" style="ellipse;whiteSpace=wrap;html=1;" vertex="1" parent="1">
          <mxGeometry x="18" y="-54" width="120" height="80" as="geometry" />
        </mxCell>
        <mxCell id="W4Z_iMovenIpP-twtgwt-12" value="Finacial Report" style="text;html=1;align=center;verticalAlign=middle;whiteSpace=wrap;rounded=0;" vertex="1" parent="1">
          <mxGeometry x="48" y="-29" width="60" height="30" as="geometry" />
        </mxCell>
        <mxCell id="W4Z_iMovenIpP-twtgwt-19" style="edgeStyle=none;curved=1;rounded=0;orthogonalLoop=1;jettySize=auto;html=1;entryX=0.033;entryY=0.673;entryDx=0;entryDy=0;entryPerimeter=0;fontSize=12;startSize=8;endSize=8;" edge="1" parent="1" source="RkT-aviXBxrdsNRnba6E-3" target="RkT-aviXBxrdsNRnba6E-5">
          <mxGeometry relative="1" as="geometry" />
        </mxCell>
        <mxCell id="W4Z_iMovenIpP-twtgwt-21" style="edgeStyle=none;curved=1;rounded=0;orthogonalLoop=1;jettySize=auto;html=1;entryX=0.023;entryY=0.628;entryDx=0;entryDy=0;entryPerimeter=0;fontSize=12;startSize=8;endSize=8;" edge="1" parent="1" source="RkT-aviXBxrdsNRnba6E-2" target="W4Z_iMovenIpP-twtgwt-9">
          <mxGeometry relative="1" as="geometry" />
        </mxCell>
        <mxCell id="W4Z_iMovenIpP-twtgwt-22" style="edgeStyle=none;curved=1;rounded=0;orthogonalLoop=1;jettySize=auto;html=1;entryX=0.253;entryY=0.895;entryDx=0;entryDy=0;entryPerimeter=0;fontSize=12;startSize=8;endSize=8;" edge="1" parent="1" source="RkT-aviXBxrdsNRnba6E-2" target="W4Z_iMovenIpP-twtgwt-11">
          <mxGeometry relative="1" as="geometry" />
        </mxCell>
      </root>
    </mxGraphModel>
  </diagram>
  <diagram id="ZR0q1wOnPLTeJYblqnrb" name="Page-5">
    <mxGraphModel dx="900" dy="982" grid="0" gridSize="10" guides="1" tooltips="1" connect="1" arrows="1" fold="1" page="0" pageScale="1" pageWidth="850" pageHeight="1100" math="0" shadow="0">
      <root>
        <mxCell id="0" />
        <mxCell id="1" parent="0" />
        <mxCell id="pfSWnezIiDpMUm_zVp26-1" value="" style="rounded=0;whiteSpace=wrap;html=1;" vertex="1" parent="1">
          <mxGeometry x="-11" y="-62" width="412" height="529" as="geometry" />
        </mxCell>
        <mxCell id="pfSWnezIiDpMUm_zVp26-2" value="Actor" style="shape=umlActor;verticalLabelPosition=bottom;verticalAlign=top;html=1;outlineConnect=0;" vertex="1" parent="1">
          <mxGeometry x="-49" y="35" width="30" height="60" as="geometry" />
        </mxCell>
        <mxCell id="pfSWnezIiDpMUm_zVp26-3" value="Actor" style="shape=umlActor;verticalLabelPosition=bottom;verticalAlign=top;html=1;outlineConnect=0;" vertex="1" parent="1">
          <mxGeometry x="-49" y="245" width="30" height="60" as="geometry" />
        </mxCell>
        <mxCell id="pfSWnezIiDpMUm_zVp26-4" value="Actor" style="shape=umlActor;verticalLabelPosition=bottom;verticalAlign=top;html=1;outlineConnect=0;" vertex="1" parent="1">
          <mxGeometry x="420" y="160" width="30" height="60" as="geometry" />
        </mxCell>
        <mxCell id="pfSWnezIiDpMUm_zVp26-5" value="" style="ellipse;whiteSpace=wrap;html=1;" vertex="1" parent="1">
          <mxGeometry x="133" y="-20" width="120" height="80" as="geometry" />
        </mxCell>
        <mxCell id="pfSWnezIiDpMUm_zVp26-6" value="" style="ellipse;whiteSpace=wrap;html=1;" vertex="1" parent="1">
          <mxGeometry x="140" y="160" width="120" height="80" as="geometry" />
        </mxCell>
        <mxCell id="pfSWnezIiDpMUm_zVp26-7" value="" style="ellipse;whiteSpace=wrap;html=1;" vertex="1" parent="1">
          <mxGeometry x="145" y="282" width="120" height="80" as="geometry" />
        </mxCell>
      </root>
    </mxGraphModel>
  </diagram>
</mxfile>
